<?xml version="1.0" encoding="utf-8"?>
<!-- Generator: Adobe Illustrator 18.0.0, SVG Export Plug-In . SVG Version: 6.00 Build 0)  -->
<!DOCTYPE svg PUBLIC "-//W3C//DTD SVG 1.1//EN" "http://www.w3.org/Graphics/SVG/1.1/DTD/svg11.dtd">
<svg version="1.1" id="Layer_1" xmlns="http://www.w3.org/2000/svg" xmlns:xlink="http://www.w3.org/1999/xlink" x="0px" y="0px"
	 viewBox="0 0 612 792" enable-background="new 0 0 612 792" xml:space="preserve">
<g>
	<path fill="#20C7EB" d="M604.6,656.9c0,19.4-16.1,35.4-35.4,35.4H40.8c-19.4,0-35.4-16.1-35.4-35.4V128.5
		C5.4,109.1,21.4,93,40.8,93h528.4c19.4,0,35.4,16.1,35.4,35.4V656.9z"/>
	<path id="Facebook_2_" fill="#0C9999" d="M269.5,306.4c0,8,0,44.8,0,44.8h-32.8V406h32.8v150.5h67.6V406h45.5c0,0,4-26.1,6-54.8
		c-6,0-51.5,0-51.5,0s0-32.1,0-37.5c0-5.4,7.4-13.4,14.7-13.4s22.7,0,36.8,0c0-7.4,0-33.4,0-56.9c-18.7,0-40.1,0-50.2,0
		C268.2,243.5,269.5,298.3,269.5,306.4z"/>
	<path id="Facebook_1_" fill="#FFFFFF" d="M261.5,299c0,8,0,44.8,0,44.8h-32.8v54.8h32.8v150.5h67.6V398.7h45.5c0,0,4-26.1,6-54.8
		c-6,0-51.5,0-51.5,0s0-32.1,0-37.5c0-5.4,7.4-13.4,14.7-13.4c7.4,0,22.7,0,36.8,0c0-7.4,0-33.4,0-56.9c-18.7,0-40.1,0-50.2,0
		C260.2,236.1,261.5,291,261.5,299z"/>
</g>
</svg>
