<?xml version="1.0" encoding="utf-8"?>
<!-- Generator: Adobe Illustrator 18.0.0, SVG Export Plug-In . SVG Version: 6.00 Build 0)  -->
<!DOCTYPE svg PUBLIC "-//W3C//DTD SVG 1.1//EN" "http://www.w3.org/Graphics/SVG/1.1/DTD/svg11.dtd">
<svg version="1.1" id="Layer_1" xmlns="http://www.w3.org/2000/svg" xmlns:xlink="http://www.w3.org/1999/xlink" x="0px" y="0px"
	 viewBox="0 0 612 792" enable-background="new 0 0 612 792" xml:space="preserve">
<g>
	<path fill="#20C7EB" d="M604.6,656.9c0,19.4-16.1,35.4-35.4,35.4H40.8c-19.4,0-35.4-16.1-35.4-35.4V128.5
		C5.4,109.1,21.4,93,40.8,93h528.4c19.4,0,35.4,16.1,35.4,35.4V656.9z"/>
	<g>
		<path fill="#0C9999" d="M482.9,291.7c-12.7,5.4-25.4,9.4-39.5,10.7c14-8.7,25.4-22.1,30.1-38.1c-13.4,8-28.1,13.4-44.1,16.7
			c-12.7-13.4-30.8-22.1-50.2-22.1c-38.1,0-68.9,30.8-68.9,68.9c0,5.4,0.7,10.7,2,16.1c-57.5-2.7-108.4-30.1-142.5-72.2
			c-6,10-9.4,22.1-9.4,34.8c0,24.1,12,44.8,30.8,57.5c-11.4-0.7-22.1-3.3-31.4-8.7v0.7c0,33.4,24.1,61.5,55.5,67.6
			c-6,1.3-12,2.7-18.1,2.7c-4.7,0-8.7-0.7-12.7-1.3c8.7,27.4,34.1,47.5,64.2,48.2c-23.4,18.7-53.5,29.4-85.6,29.4
			c-5.4,0-11.4,0-16.7-0.7c30.8,19.4,66.9,30.8,105.7,30.8c127.1,0,196.6-105,196.6-196.6c0-2.7,0-6,0-8.7
			C462.2,317.7,473.5,305.7,482.9,291.7z"/>
		<path fill="#FFFFFF" d="M476.9,285c-12.7,5.4-25.4,9.4-39.5,10.7c14-8.7,25.4-22.1,30.1-38.1c-13.4,8-28.1,13.4-44.1,16.7
			c-12.7-13.4-30.8-22.1-50.2-22.1c-38.1,0-68.9,30.8-68.9,68.9c0,5.4,0.7,10.7,2,16.1c-57.5-2.7-108.4-30.1-142.5-72.2
			c-6,10-9.4,22.1-9.4,34.8c0,24.1,12,44.8,30.8,57.5c-11.4-0.7-22.1-3.3-31.4-8.7v0.7c0,33.4,24.1,61.5,55.5,67.6
			c-6,1.3-12,2.7-18.1,2.7c-4.7,0-8.7-0.7-12.7-1.3c8.7,27.4,34.1,47.5,64.2,48.2c-23.4,18.7-53.5,29.4-85.6,29.4
			c-5.4,0-11.4,0-16.7-0.7c30.8,19.4,66.9,30.8,105.7,30.8c127.1,0,196.6-105,196.6-196.6c0-2.7,0-6,0-8.7
			C456.2,311.1,467.5,299,476.9,285z"/>
	</g>
</g>
</svg>
