<?xml version="1.0" encoding="utf-8"?>
<!-- Generator: Adobe Illustrator 18.0.0, SVG Export Plug-In . SVG Version: 6.00 Build 0)  -->
<!DOCTYPE svg PUBLIC "-//W3C//DTD SVG 1.1//EN" "http://www.w3.org/Graphics/SVG/1.1/DTD/svg11.dtd">
<svg version="1.1" id="Layer_1" xmlns="http://www.w3.org/2000/svg" xmlns:xlink="http://www.w3.org/1999/xlink" x="0px" y="0px"
	 viewBox="0 0 612 792" enable-background="new 0 0 612 792" xml:space="preserve">
<g>
	<path fill="#20C7EB" d="M604.6,656.9c0,19.4-16.1,35.4-35.4,35.4H40.8c-19.4,0-35.4-16.1-35.4-35.4V128.5
		C5.4,109.1,21.4,93,40.8,93h528.4c19.4,0,35.4,16.1,35.4,35.4V656.9z"/>
	<g>
		<g>
			<polygon fill="#0C9999" points="398.6,402.7 398.6,323.1 230.8,323.1 230.8,402.7 163.2,402.7 309.7,563.9 460.2,402.7 			"/>
			<rect x="230.8" y="276.9" fill="#0C9999" width="166.5" height="26.1"/>
			<rect x="230.8" y="228.8" fill="#0C9999" width="166.5" height="26.1"/>
		</g>
		<g>
			<polygon fill="#FFFFFF" points="391.3,395.3 391.3,315.7 223.4,315.7 223.4,395.3 156.5,395.3 302.3,556.5 453.5,395.3 			"/>
			<rect x="223.4" y="269.6" fill="#FFFFFF" width="166.5" height="26.1"/>
			<rect x="223.4" y="221.4" fill="#FFFFFF" width="166.5" height="26.1"/>
		</g>
	</g>
</g>
</svg>
