<?xml version="1.0" encoding="utf-8"?>
<!-- Generator: Adobe Illustrator 18.0.0, SVG Export Plug-In . SVG Version: 6.00 Build 0)  -->
<!DOCTYPE svg PUBLIC "-//W3C//DTD SVG 1.1//EN" "http://www.w3.org/Graphics/SVG/1.1/DTD/svg11.dtd">
<svg version="1.1" id="Layer_1" xmlns="http://www.w3.org/2000/svg" xmlns:xlink="http://www.w3.org/1999/xlink" x="0px" y="0px"
	 viewBox="0 0 612 792" enable-background="new 0 0 612 792" xml:space="preserve">
<g>
	<path fill="#1B99C1" d="M604.6,656.9c0,19.4-16.1,35.4-35.4,35.4H40.8c-19.4,0-35.4-16.1-35.4-35.4V128.5
		C5.4,109.1,21.4,93,40.8,93h528.4c19.4,0,35.4,16.1,35.4,35.4V656.9z"/>
	<path fill="#0C5B6D" d="M321,226.8c-94.3,0-142.5,67.6-142.5,124.4c0,34.1,12.7,64.9,40.8,76.2c4.7,2,8.7,0,10-4.7
		c0.7-3.3,3.3-12,4-16.1c1.3-4.7,0.7-6.7-2.7-11.4c-8-9.4-13.4-21.4-13.4-38.8c0-50.2,37.5-95,97.7-95c53.5,0,82.9,32.8,82.9,76.2
		c0,57.5-25.4,105.7-62.9,105.7c-20.7,0-36.1-17.4-31.4-38.1c6-25.4,17.4-52.2,17.4-70.9c0-16.1-8.7-30.1-26.8-30.1
		c-21.4,0-38.1,22.1-38.1,51.5c0,18.7,6,31.4,6,31.4s-21.4,91.6-25.4,107.7c-7.4,32.1-1.3,71.6-0.7,75.6c0,2.7,3.3,2.7,4.7,1.3
		c2-2.7,27.4-34.1,36.1-64.9c2.7-8.7,14-54.8,14-54.8c6.7,13.4,27.4,24.7,48.8,24.7c64.2,0,107.7-58.2,107.7-136.4
		C446.8,281.6,396.6,226.8,321,226.8z"/>
	<path fill="#FFFFFF" d="M313,219.4c-94.3,0-142.5,67.6-142.5,124.4c0,34.1,12.7,64.9,40.8,76.2c4.7,2,8.7,0,10-4.7
		c0.7-3.3,3.3-12,4-16.1c1.3-4.7,0.7-6.7-2.7-11.4c-8-9.4-13.4-21.4-13.4-38.8c0-50.2,37.5-95,97.7-95c53.5,0,82.9,32.8,82.9,76.2
		c0,57.5-25.4,105.7-62.9,105.7c-20.7,0-36.1-17.4-31.4-38.1c6-25.4,17.4-52.2,17.4-70.9c0-16.1-8.7-30.1-26.8-30.1
		c-21.4,0-38.1,22.1-38.1,51.5c0,18.7,6,31.4,6,31.4s-22.1,92.3-25.4,108.4c-7.4,32.1-1.3,71.6-0.7,75.6c0,2.7,3.3,2.7,4.7,1.3
		c2-2.7,27.4-34.1,36.1-64.9c2.7-8.7,14-54.8,14-54.8c6.7,13.4,27.4,24.7,48.8,24.7c64.2,0,107.7-58.2,107.7-136.4
		C438.8,274.3,388.6,219.4,313,219.4z"/>
</g>
</svg>
